<svg width="1200" height="560" viewBox="0 0 1200 560" xmlns="http://www.w3.org/2000/svg">
  <defs>
    <linearGradient id="g1" x1="0" x2="1" y1="0" y2="1">
      <stop offset="0%" stop-color="#2F6BFF" stop-opacity="0.35"/>
      <stop offset="100%" stop-color="#16B8A6" stop-opacity="0.35"/>
    </linearGradient>
  </defs>
  <rect width="1200" height="560" fill="none"/>
  <g stroke="url(#g1)" stroke-width="8" fill="none">
    <path d="M60 120 C 200 40, 360 40, 520 120 S 840 200, 1100 120" />
    <path d="M60 260 C 200 180, 360 180, 520 260 S 840 340, 1100 260" opacity="0.7" />
    <path d="M60 400 C 200 320, 360 320, 520 400 S 840 480, 1100 400" opacity="0.5" />
  </g>
  <g transform="translate(480,160)">
    <rect x="0" y="0" width="520" height="260" rx="16" fill="#0B1220" opacity="0.9"/>
    <circle cx="90" cy="130" r="56" stroke="#2F6BFF" stroke-width="10" fill="none"/>
    <path d="M90 74 A56 56 0 0 1 128 92" stroke="#16B8A6" stroke-width="12" stroke-linecap="round" fill="none"/>
    <path d="M34 130 A56 56 0 0 1 58 92" stroke="#7C3AED" stroke-width="12" stroke-linecap="round" fill="none"/>
    <path d="M128 168 A56 56 0 0 1 90 186" stroke="#F59E0B" stroke-width="12" stroke-linecap="round" fill="none"/>
    <path d="M72 134 L90 152 L122 118" stroke="#FFFFFF" stroke-width="14" stroke-linecap="round" stroke-linejoin="round"/>
    <rect x="180" y="40" width="300" height="24" rx="6" fill="#111827"/>
    <rect x="180" y="80" width="260" height="14" rx="6" fill="#1f2937"/>
    <rect x="180" y="110" width="220" height="14" rx="6" fill="#1f2937"/>
    <rect x="180" y="140" width="180" height="14" rx="6" fill="#1f2937"/>
    <rect x="180" y="180" width="220" height="14" rx="6" fill="#1f2937"/>
    <rect x="180" y="210" width="180" height="14" rx="6" fill="#1f2937"/>
  </g>
</svg>